<svg xmlns="http://www.w3.org/2000/svg" width="512" height="512" viewBox="0 0 512 512">
  <defs>
    <linearGradient id="bg" x1="0" y1="0" x2="1" y2="1">
      <stop offset="0" stop-color="#34d399"/>
      <stop offset="0.55" stop-color="#10b981"/>
      <stop offset="1" stop-color="#0f766e"/>
    </linearGradient>
    <linearGradient id="gloss" x1="0" y1="0" x2="0" y2="1">
      <stop offset="0" stop-color="#ffffff" stop-opacity="0.22"/>
      <stop offset="0.5" stop-color="#ffffff" stop-opacity="0"/>
    </linearGradient>
    <filter id="ds" x="-30%" y="-30%" width="160%" height="160%">
      <feDropShadow dx="0" dy="10" stdDeviation="14" flood-color="#064e3b" flood-opacity="0.35"/>
    </filter>
  </defs>
  <rect width="512" height="512" rx="116" fill="url(#bg)"/>
  <g filter="url(#ds)">
    <g fill="none" stroke="#ffffff" stroke-width="30" stroke-linecap="round">
      <path d="M 276.8 137.8 A 120 120 0 0 1 366.8 292.0"/>
      <path d="M 342.9 331.1 A 120 120 0 0 1 169.1 331.1"/>
      <path d="M 145.2 292.0 A 120 120 0 0 1 234.2 139.8"/>
    </g>
    <g fill="#ffffff">
      <path d="M 359.9 321.4 L 384.8 302.8 L 352.8 291.2 Z"/>
      <path d="M 147.4 313.2 L 151.1 344.0 L 177.1 322.2 Z"/>
      <path d="M 260.8 133.3 L 232.2 121.1 L 238.2 154.5 Z"/>
    </g>
  </g>
  <g>
    <circle cx="256" cy="208" r="32" fill="#d1fae5"/>
    <circle cx="248" cy="200" r="10" fill="#ffffff" opacity="0.85"/>
    <circle cx="214" cy="288" r="32" fill="#d1fae5"/>
    <circle cx="206" cy="280" r="10" fill="#ffffff" opacity="0.85"/>
    <circle cx="298" cy="288" r="32" fill="#d1fae5"/>
    <circle cx="290" cy="280" r="10" fill="#ffffff" opacity="0.85"/>
  </g>
  <rect width="512" height="512" rx="116" fill="url(#gloss)"/>
</svg>
