<svg xmlns="http://www.w3.org/2000/svg" width="512" height="512" viewBox="0 0 512 512">
  <defs>
    <linearGradient id="bg" x1="0" y1="0" x2="1" y2="1">
      <stop offset="0" stop-color="#818cf8"/>
      <stop offset="0.55" stop-color="#6366f1"/>
      <stop offset="1" stop-color="#7c3aed"/>
    </linearGradient>
    <linearGradient id="person" x1="0" y1="0" x2="1" y2="1">
      <stop offset="0" stop-color="#6366f1"/>
      <stop offset="1" stop-color="#8b5cf6"/>
    </linearGradient>
    <linearGradient id="lens" x1="0" y1="0" x2="1" y2="1">
      <stop offset="0" stop-color="#a855f7"/>
      <stop offset="1" stop-color="#6366f1"/>
    </linearGradient>
    <linearGradient id="gloss" x1="0" y1="0" x2="0" y2="1">
      <stop offset="0" stop-color="#ffffff" stop-opacity="0.22"/>
      <stop offset="0.5" stop-color="#ffffff" stop-opacity="0"/>
    </linearGradient>
    <filter id="ds" x="-30%" y="-30%" width="160%" height="160%">
      <feDropShadow dx="0" dy="10" stdDeviation="14" flood-color="#312e81" flood-opacity="0.35"/>
    </filter>
  </defs>
  <rect width="512" height="512" rx="116" fill="url(#bg)"/>
  <g filter="url(#ds)">
    <rect x="82" y="146" width="348" height="226" rx="30" fill="#ffffff"/>
  </g>
  <circle cx="192" cy="228" r="37" fill="url(#person)"/>
  <path d="M 134 322 A 58 58 0 0 1 250 322 Z" fill="url(#person)"/>
  <rect x="284" y="192" width="104" height="20" rx="10" fill="#e0e7ff"/>
  <rect x="284" y="232" width="76" height="20" rx="10" fill="#e0e7ff"/>
  <rect x="284" y="272" width="104" height="20" rx="10" fill="#e0e7ff"/>
  <g filter="url(#ds)">
    <circle cx="392" cy="356" r="58" fill="url(#lens)"/>
  </g>
  <circle cx="392" cy="356" r="42" fill="#ffffff"/>
  <circle cx="392" cy="356" r="28" fill="url(#lens)"/>
  <circle cx="383" cy="347" r="9" fill="#ffffff" opacity="0.9"/>
  <rect width="512" height="512" rx="116" fill="url(#gloss)"/>
</svg>
